<?xml version="1.0" standalone="no"?>
<!DOCTYPE svg PUBLIC "-//W3C//DTD SVG 20010904//EN"
 "http://www.w3.org/TR/2001/REC-SVG-20010904/DTD/svg10.dtd">
<svg version="1.0" xmlns="http://www.w3.org/2000/svg"
 width="1000.000000pt" height="1000.000000pt" viewBox="0 0 1000.000000 1000.000000"
 preserveAspectRatio="xMidYMid meet">
<metadata>
Created by potrace 1.11, written by Peter Selinger 2001-2013
</metadata>
<g transform="translate(0.000000,1000.000000) scale(0.100000,-0.100000)"
fill="#000000" stroke="none">
<path d="M4750 8265 c-554 -67 -1065 -280 -1500 -626 -130 -103 -351 -323
-451 -449 -356 -448 -568 -956 -634 -1516 -20 -169 -20 -509 0 -678 57 -484
230 -945 503 -1341 193 -279 468 -554 747 -747 396 -273 857 -446 1341 -503
169 -20 509 -20 678 0 484 57 945 230 1341 503 279 193 554 468 747 747 273
396 446 857 503 1341 20 169 20 509 0 678 -57 484 -230 945 -503 1341 -193
279 -468 554 -747 747 -396 273 -857 446 -1341 503 -157 18 -533 18 -684 0z
m522 -1119 c125 -7 273 -37 422 -87 622 -207 1085 -732 1216 -1379 41 -204 41
-496 0 -700 -131 -647 -594 -1172 -1216 -1379 -228 -76 -442 -103 -696 -89
-495 27 -981 282 -1305 683 -223 276 -372 660 -391 1012 -31 553 161 1053 550
1429 106 103 160 146 278 224 182 119 417 215 640 260 99 20 310 39 375 33 17
-1 74 -4 127 -7z"/>
<path d="M4835 6990 c-245 -43 -418 -109 -608 -230 -235 -149 -406 -323 -550
-553 -51 -83 -112 -206 -109 -219 1 -5 -2 -8 -7 -8 -14 0 -79 -204 -101 -318
-29 -151 -29 -540 0 -684 24 -115 78 -291 91 -296 5 -2 7 -8 3 -13 -3 -5 0 -9
5 -9 6 0 10 -3 9 -7 -5 -19 128 -256 189 -338 195 -260 438 -443 763 -574 225
-90 260 -96 600 -96 340 0 375 6 600 96 257 103 424 211 595 384 144 146 228
261 304 415 31 63 61 118 66 122 7 5 7 8 0 8 -6 0 -5 4 1 8 16 10 69 181 94
300 29 144 29 533 0 684 -21 109 -77 291 -92 296 -4 2 -6 8 -2 13 3 5 0 9 -5
9 -6 0 -10 3 -9 8 3 12 -56 132 -101 207 -75 123 -192 268 -291 358 -276 253
-544 384 -902 441 -135 22 -410 20 -543 -4z"/>
<path d="M1549 7089 c0 -299 -3 -555 -5 -569 -13 -72 -66 -92 -99 -38 -17 30
-19 61 -19 556 l-1 524 -30 24 c-36 29 -84 31 -115 6 l-22 -18 -1 -524 c0
-552 0 -554 -46 -586 -25 -18 -61 -4 -62 24 0 9 -1 266 -1 570 0 303 -4 552
-8 552 -17 0 -88 -98 -119 -165 -83 -176 -196 -534 -216 -685 -2 -14 -8 -54
-13 -90 -16 -112 -18 -162 -9 -286 5 -72 41 -230 67 -300 17 -44 122 -140 171
-155 l44 -14 5 -1590 5 -1590 34 -62 c29 -54 41 -66 87 -88 44 -21 67 -25 142
-25 163 0 251 62 267 190 3 19 9 49 14 66 5 17 9 667 9 1475 1 794 1 1480 2
1524 l0 80 53 28 c75 39 118 84 159 169 55 115 72 205 71 398 0 91 -5 183 -11
205 -6 22 -14 56 -17 75 -10 58 -72 299 -99 385 -28 89 -77 201 -153 351 -89
174 -83 203 -84 -417z"/>
<path d="M8950 7611 c-80 -17 -273 -162 -314 -236 -9 -16 -22 -39 -29 -50 -41
-65 -58 -100 -76 -152 -11 -32 -32 -89 -45 -128 -14 -39 -28 -105 -32 -150 -3
-44 -8 -93 -11 -110 -8 -48 -11 -1710 -3 -1763 4 -26 13 -85 20 -132 14 -99
49 -170 117 -235 l43 -41 0 -923 c1 -1010 -2 -954 59 -1043 21 -30 64 -60 91
-63 3 -1 23 -5 45 -10 54 -12 76 -13 101 -4 11 4 38 10 59 13 41 7 91 34 118
64 9 10 27 68 39 133 l23 115 -1 2304 c0 2181 -1 2307 -18 2351 -15 39 -24 48
-56 58 -41 12 -76 13 -130 2z"/>
</g>
</svg>
